# File created by Blade
# Date/Time:  Wed Jan 21 14:37:15 2015
# Frame Rate: 120.000 fps
#------------------------------------------------------
:FULLY-SPECIFIED
:DEGREES
851
root 18.938300 35.537337 -21.825058 -172.369339 -3.322516 -178.140854
Spine -16.662456 -0.926650 -0.651186
Head 9.029008 -2.314275 5.879000
LeftShoulder -16.209536 -35.511141 24.959479
LeftArm -7.382757 2.319485 -9.150668
LeftForeArm 24.789448 -0.000000 -1.248451
LeftHand -4.021670 -0.000000 -5.139879
LeftHandThumb1 -26.253704 0.000000 33.147579
RightShoulder -11.962218 1.283853 -12.739370
RightArm -6.319534 39.283622 11.060186
RightForeArm -39.485950 0.000000 8.532005
RightHand -5.726219 -0.000000 1.561009
RightHandThumb1 -24.326973 -0.000000 -32.862282
LeftUpLeg -0.489138 11.824259 2.469363
LeftLeg -6.077251 -0.000000 0.000000
LeftFoot -19.842143 29.116724 -11.603388
LeftToeBase 27.177041 -0.000000 -0.000000
RightUpLeg -0.837886 -9.223609 2.585330
RightLeg -3.232164 -0.000000 0.000000
RightFoot -20.798585 -26.691397 14.841624
RightToeBase 23.396009 -0.000000 -0.000000
852
root 18.939902 35.536696 -21.835531 -172.386926 -3.298236 -178.140734
Spine -16.716682 -0.882090 -0.659395
Head 9.097956 -2.352383 5.828571
LeftShoulder -16.162067 -35.526465 25.001890
LeftArm -7.321465 2.213897 -9.142574
LeftForeArm 24.752113 0.000000 -1.269721
LeftHand -4.050238 0.000000 -4.852115
LeftHandThumb1 -26.253704 0.000000 33.147579
RightShoulder -11.964292 1.296345 -12.771030
RightArm -6.180521 39.270728 11.091069
RightForeArm -39.494550 -0.000000 8.433186
RightHand -5.971398 -0.000000 1.691962
RightHandThumb1 -24.326973 -0.000000 -32.862282
LeftUpLeg -0.450307 11.844287 2.478739
LeftLeg -6.075930 -0.000000 0.000000
LeftFoot -19.864993 29.113841 -11.622636
LeftToeBase 27.210665 -0.000000 -0.000000
RightUpLeg -0.804247 -9.212123 2.580125
RightLeg -3.233087 -0.000000 0.000000
RightFoot -20.810137 -26.671579 14.852071
RightToeBase 23.414566 -0.000000 -0.000000
853
root 18.940065 35.536203 -21.843976 -172.400589 -3.276835 -178.145287
Spine -16.772690 -0.842701 -0.661404
Head 9.162888 -2.388828 5.757885
LeftShoulder -16.103221 -35.540523 25.013550
LeftArm -7.265553 2.117963 -9.125726
LeftForeArm 24.710898 -0.000000 -1.266034
LeftHand -4.098066 -0.000000 -4.613555
LeftHandThumb1 -26.253704 0.000000 33.147579
RightShoulder -11.955584 1.288275 -12.794204
RightArm -6.032633 39.288437 11.100010
RightForeArm -39.538383 0.000000 8.304595
RightHand -6.158386 -0.000000 1.892080
RightHandThumb1 -24.326973 -0.000000 -32.862282
LeftUpLeg -0.425063 11.867964 2.478249
LeftLeg -6.060897 -0.000000 0.000000
LeftFoot -19.898301 29.105062 -11.647875
LeftToeBase 27.211338 -0.000000 -0.000000
RightUpLeg -0.774595 -9.185158 2.569109
RightLeg -3.237548 -0.000000 0.000000
RightFoot -20.824035 -26.678154 14.854527
RightToeBase 23.344656 -0.000000 -0.000000
854
root 18.940100 35.535846 -21.852409 -172.408792 -3.252818 -178.154413
Spine -16.830222 -0.792482 -0.671876
Head 9.218268 -2.434618 5.685818
LeftShoulder -16.026782 -35.563264 25.017773
LeftArm -7.213195 2.043558 -9.115040
LeftForeArm 24.685890 -0.000000 -1.244820
LeftHand -4.195133 -0.000000 -4.364909
LeftHandThumb1 -26.253704 0.000000 33.147579
RightShoulder -11.959984 1.287226 -12.805854
RightArm -5.897936 39.275373 11.086803
RightForeArm -39.552665 -0.000000 8.222787
RightHand -6.327824 -0.000000 2.218759
RightHandThumb1 -24.326973 -0.000000 -32.862282
LeftUpLeg -0.401788 11.900193 2.472277
LeftLeg -6.059213 -0.000000 0.000000
LeftFoot -19.965591 29.089294 -11.723966
LeftToeBase 27.348115 -0.000000 -0.000000
RightUpLeg -0.750402 -9.161608 2.555061
RightLeg -3.243688 -0.000000 0.000000
RightFoot -20.827415 -26.681024 14.846792
RightToeBase 23.401783 -0.000000 -0.000000
855
root 18.939644 35.534987 -21.859291 -172.425832 -3.246263 -178.159631
Spine -16.869331 -0.775297 -0.665990
Head 9.257969 -2.479443 5.610902
LeftShoulder -15.986806 -35.566202 25.031947
LeftArm -7.112839 1.775979 -9.093209
LeftForeArm 24.867130 -0.000000 -1.279677
LeftHand -4.136131 -0.000000 -4.208328
LeftHandThumb1 -26.253704 0.000000 33.147579
RightShoulder -11.939649 1.291745 -12.810013
RightArm -5.780491 39.264925 11.044049
RightForeArm -39.609844 -0.000000 8.148071
RightHand -6.353285 0.000000 2.646645
RightHandThumb1 -24.326973 -0.000000 -32.862282
LeftUpLeg -0.378185 11.888450 2.472416
LeftLeg -6.038483 -0.000000 0.000000
LeftFoot -19.927568 29.098961 -11.682862
LeftToeBase 27.165468 -0.000000 -0.000000
RightUpLeg -0.726179 -9.153061 2.546525
RightLeg -3.236542 -0.000000 0.000000
RightFoot -20.845940 -26.705185 14.840436
RightToeBase 23.394381 -0.000000 -0.000000
